<?xml version="1.0" encoding="UTF-8"?>
<svg version="1.1" xmlns="http://www.w3.org/2000/svg" width="612" height="408">
<path d="M0 0 C0.80897736 0.00328812 1.61795471 0.00657623 2.45144653 0.00996399 C4.1474014 0.02032505 5.84332256 0.04017245 7.5390625 0.0690918 C10.14602961 0.11350643 12.75207482 0.13058435 15.359375 0.14257812 C17.0104301 0.15598938 18.66147379 0.1709088 20.3125 0.1875 C21.48581375 0.1985804 21.48581375 0.1985804 22.68283081 0.20988464 C28.13944703 0.30741578 28.13944703 0.30741578 29.2578125 1.42578125 C29.92272875 5.19363999 29.24158269 6.44989411 27.0703125 9.67578125 C26.61011719 10.27261719 26.14992188 10.86945313 25.67578125 11.484375 C24.20557812 13.49729775 23.05097485 15.53778939 21.8828125 17.73828125 C19.51406899 22.12985651 16.738377 26.12992637 13.80859375 30.1640625 C12.41374087 32.19836935 11.29513388 34.19272981 10.2578125 36.42578125 C9.5978125 36.42578125 8.9378125 36.42578125 8.2578125 36.42578125 C8.0515625 37.23015625 7.8453125 38.03453125 7.6328125 38.86328125 C5.81629632 43.56970953 3.11870435 47.29208445 0.2578125 51.42578125 C-1.45929182 53.98245255 -3.16275046 56.5481537 -4.8671875 59.11328125 C-6.10462677 60.97015296 -7.342708 62.82659468 -8.58105469 64.68286133 C-9.68690281 66.3427961 -10.78886729 68.00531621 -11.890625 69.66796875 C-13.30221471 71.77046313 -14.73903473 73.8269155 -16.2421875 75.86328125 C-17.92322037 78.19205156 -19.41467514 80.53785695 -20.8046875 83.05078125 C-22.7421875 86.42578125 -22.7421875 86.42578125 -24.6796875 88.80078125 C-27.0425749 91.80809248 -28.73424647 94.95478636 -30.49609375 98.33984375 C-31.72738384 100.4010002 -33.05582726 101.73942101 -34.7421875 103.42578125 C-35.57659935 104.8388981 -36.36618748 106.2791235 -37.1171875 107.73828125 C-39.33038594 111.79360295 -41.42246872 115.18905544 -44.7421875 118.42578125 C-47.1875 118.8515625 -47.1875 118.8515625 -49.7421875 118.42578125 C-51.515625 116.58984375 -51.515625 116.58984375 -53.1171875 114.05078125 C-53.71144531 113.13425781 -54.30570312 112.21773438 -54.91796875 111.2734375 C-55.51996094 110.33371094 -56.12195313 109.39398438 -56.7421875 108.42578125 C-57.92376531 106.7756911 -59.11114197 105.12973569 -60.3046875 103.48828125 C-69.79410424 89.84589982 -69.79410424 89.84589982 -69.69140625 85.05859375 C-68.35340685 81.34743493 -66.29305054 78.34291356 -64.0546875 75.11328125 C-63.37684204 74.11578857 -63.37684204 74.11578857 -62.68530273 73.09814453 C-59.90079013 69.02521589 -57.04671829 65.0160204 -53.99609375 61.13671875 C-52.41982555 58.98592289 -51.11047587 56.71497014 -49.7421875 54.42578125 C-48.18383649 52.01322037 -46.58870247 49.62570777 -44.9921875 47.23828125 C-44.58742188 46.62919922 -44.18265625 46.02011719 -43.765625 45.39257812 C-40.17454313 40.01153154 -36.4654276 34.71594287 -32.7421875 29.42578125 C-30.92658335 26.84475149 -29.11113135 24.26361801 -27.296875 21.68164062 C-26.07939742 19.94897502 -24.86061713 18.21722413 -23.640625 16.48632812 C-23.05023438 15.64521484 -22.45984375 14.80410156 -21.8515625 13.9375 C-21.32530273 13.18944092 -20.79904297 12.44138184 -20.25683594 11.6706543 C-18.67935847 9.43951435 -18.67935847 9.43951435 -17.48535156 6.89379883 C-13.00012618 0.54349864 -7.20589775 -0.16383251 0 0 Z " fill="#4F2FAA" transform="translate(353.7421875,140.57421875)"/>
<path d="M0 0 C0.7857843 -0.0033284 1.5715686 -0.0066568 2.38116455 -0.01008606 C4.04902561 -0.01516029 5.71689686 -0.01749423 7.38476562 -0.01733398 C9.92855814 -0.01951023 12.4719099 -0.03763188 15.015625 -0.05664062 C16.63541518 -0.05957655 18.25520743 -0.06156001 19.875 -0.0625 C20.63351257 -0.06968552 21.39202515 -0.07687103 22.17352295 -0.08427429 C26.29508538 -0.06659226 29.49595513 0.32215662 33.203125 2.16796875 C33.203125 2.82796875 33.203125 3.48796875 33.203125 4.16796875 C34.193125 4.49796875 35.183125 4.82796875 36.203125 5.16796875 C37.82421875 7.109375 37.82421875 7.109375 39.640625 9.73046875 C40.69443359 11.22320312 40.69443359 11.22320312 41.76953125 12.74609375 C42.15641113 13.29458984 42.54329102 13.84308594 42.94189453 14.40820312 C44.76763873 16.95562166 46.6564861 19.45359209 48.54638672 21.95361328 C50.60078243 24.67206932 52.63785507 27.40334036 54.67626953 30.13378906 C56.18293925 32.14107594 57.7063415 34.13486048 59.23046875 36.12890625 C60.15968961 37.37046892 61.08811284 38.61262908 62.015625 39.85546875 C62.45438965 40.41919189 62.8931543 40.98291504 63.34521484 41.5637207 C66.25389827 45.51377725 66.25389827 45.51377725 66.02124023 48.51147461 C65.05020798 51.66450415 63.63184896 53.9285215 61.78125 56.66015625 C60.73710937 58.21283203 60.73710937 58.21283203 59.671875 59.796875 C58.9396875 60.86808594 58.2075 61.93929687 57.453125 63.04296875 C56.73640625 64.10644531 56.0196875 65.16992188 55.28125 66.265625 C51.66229158 71.62088516 47.99227397 76.93178258 44.203125 82.16796875 C42.883125 81.83796875 41.563125 81.50796875 40.203125 81.16796875 C40.203125 80.50796875 40.203125 79.84796875 40.203125 79.16796875 C39.543125 79.16796875 38.883125 79.16796875 38.203125 79.16796875 C37.02191942 77.46901689 35.93770434 75.70271212 34.890625 73.91796875 C31.2797708 67.86576778 27.49684933 61.94166376 23.640625 56.04296875 C20.12963187 50.66646292 16.62731928 45.28772445 13.203125 39.85546875 C11.40874434 37.01362942 9.56994236 34.2496408 7.578125 31.54296875 C5.7713045 29.07325632 4.27695746 26.55086161 2.828125 23.85546875 C0.024534 18.66660033 -3.3664015 13.95507787 -6.796875 9.16796875 C-8.94496671 5.94583118 -9.09073653 4.89021474 -8.796875 1.16796875 C-6.78978047 -0.83912578 -2.75137605 0.00399394 0 0 Z " fill="#1F80E3" transform="translate(237.796875,140.83203125)"/>
<path d="M0 0 C0.80897736 0.00328812 1.61795471 0.00657623 2.45144653 0.00996399 C4.1474014 0.02032505 5.84332256 0.04017245 7.5390625 0.0690918 C10.14602961 0.11350643 12.75207482 0.13058435 15.359375 0.14257812 C17.0104301 0.15598938 18.66147379 0.1709088 20.3125 0.1875 C21.48581375 0.1985804 21.48581375 0.1985804 22.68283081 0.20988464 C28.13944703 0.30741578 28.13944703 0.30741578 29.2578125 1.42578125 C29.29845082 3.0919524 29.3005335 4.7596622 29.2578125 6.42578125 C26.9478125 7.74578125 24.6378125 9.06578125 22.2578125 10.42578125 C22.2578125 8.11578125 22.2578125 5.80578125 22.2578125 3.42578125 C16.32723305 5.31851937 12.98768444 8.35624088 8.76171875 12.87890625 C6.72724356 14.94829443 4.67692968 16.8231524 2.48046875 18.7109375 C-2.60272641 23.10692594 -7.24303077 27.90665102 -11.91796875 32.72851562 C-15.63675533 36.5084428 -19.23065904 39.58635774 -23.7421875 42.42578125 C-25.29106408 43.70506684 -26.8140223 45.01661591 -28.3046875 46.36328125 C-29.38943359 47.33587891 -29.38943359 47.33587891 -30.49609375 48.328125 C-34.17075655 51.75994052 -37.67228408 55.34935646 -41.15234375 58.9765625 C-42.36963443 60.2306214 -43.58708499 61.48452512 -44.8046875 62.73828125 C-45.41634766 63.38345703 -46.02800781 64.02863281 -46.65820312 64.69335938 C-47.55249023 65.60698242 -47.55249023 65.60698242 -48.46484375 66.5390625 C-49.26547241 67.37111206 -49.26547241 67.37111206 -50.08227539 68.2199707 C-51.7421875 69.42578125 -51.7421875 69.42578125 -55.7421875 69.42578125 C-56.74383511 62.91507177 -53.33672769 59.43678381 -49.7421875 54.42578125 C-48.0793143 51.95788304 -46.44353978 49.4721765 -44.8046875 46.98828125 C-40.88485964 41.06208461 -36.8321219 35.23567477 -32.7421875 29.42578125 C-30.92655303 26.84477279 -29.11113136 24.26361803 -27.296875 21.68164062 C-26.07939742 19.94897502 -24.86061713 18.21722413 -23.640625 16.48632812 C-23.05023438 15.64521484 -22.45984375 14.80410156 -21.8515625 13.9375 C-21.32530273 13.18944092 -20.79904297 12.44138184 -20.25683594 11.6706543 C-18.67935847 9.43951435 -18.67935847 9.43951435 -17.48535156 6.89379883 C-13.00012618 0.54349864 -7.20589775 -0.16383251 0 0 Z " fill="#9C52DF" transform="translate(353.7421875,140.57421875)"/>
<path d="M0 0 C0.7857843 -0.0033284 1.5715686 -0.0066568 2.38116455 -0.01008606 C4.04902561 -0.01516029 5.71689686 -0.01749423 7.38476562 -0.01733398 C9.92855814 -0.01951023 12.4719099 -0.03763188 15.015625 -0.05664062 C16.63541518 -0.05957655 18.25520743 -0.06156001 19.875 -0.0625 C20.63351257 -0.06968552 21.39202515 -0.07687103 22.17352295 -0.08427429 C26.29508538 -0.06659226 29.49595513 0.32215662 33.203125 2.16796875 C33.203125 2.82796875 33.203125 3.48796875 33.203125 4.16796875 C34.193125 4.49796875 35.183125 4.82796875 36.203125 5.16796875 C37.82421875 7.109375 37.82421875 7.109375 39.640625 9.73046875 C40.69443359 11.22320312 40.69443359 11.22320312 41.76953125 12.74609375 C42.15641113 13.29458984 42.54329102 13.84308594 42.94189453 14.40820312 C44.76763873 16.95562166 46.6564861 19.45359209 48.54638672 21.95361328 C50.60078243 24.67206932 52.63785507 27.40334036 54.67626953 30.13378906 C56.18293925 32.14107594 57.7063415 34.13486048 59.23046875 36.12890625 C60.15968961 37.37046892 61.08811284 38.61262908 62.015625 39.85546875 C62.45438965 40.41919189 62.8931543 40.98291504 63.34521484 41.5637207 C65.23241869 44.12658535 66.20120195 45.71348717 66.21484375 48.9375 C65.203125 51.16796875 65.203125 51.16796875 63.140625 52.48046875 C62.1815625 52.82078125 62.1815625 52.82078125 61.203125 53.16796875 C60.32011719 52.40613281 59.43710937 51.64429688 58.52734375 50.859375 C52.92981871 46.0405474 47.33152242 41.23851206 41.578125 36.60546875 C38.61712 34.21911805 35.75682458 31.78105369 32.99609375 29.16796875 C32.18809326 28.40528687 32.18809326 28.40528687 31.36376953 27.62719727 C30.32086742 26.63416199 29.28621896 25.63236454 28.26123047 24.62084961 C25.24423717 21.74352238 24.57608092 21.16796875 20.203125 21.16796875 C18.82080057 19.54170471 17.48374985 17.87546855 16.203125 16.16796875 C15.543125 16.16796875 14.883125 16.16796875 14.203125 16.16796875 C14.203125 15.50796875 14.203125 14.84796875 14.203125 14.16796875 C13.543125 14.16796875 12.883125 14.16796875 12.203125 14.16796875 C11.996875 13.61109375 11.790625 13.05421875 11.578125 12.48046875 C9.62629468 9.19784504 7.26081506 7.46123629 4.203125 5.16796875 C3.543125 5.16796875 2.883125 5.16796875 2.203125 5.16796875 C1.213125 6.65296875 1.213125 6.65296875 0.203125 8.16796875 C-0.126875 8.49796875 -0.456875 8.82796875 -0.796875 9.16796875 C-0.136875 9.82796875 0.523125 10.48796875 1.203125 11.16796875 C-0.484375 11.98046875 -0.484375 11.98046875 -2.796875 12.16796875 C-5.484375 9.79296875 -5.484375 9.79296875 -7.796875 7.16796875 C-8.126875 6.83796875 -8.456875 6.50796875 -8.796875 6.16796875 C-8.921875 3.66796875 -8.921875 3.66796875 -8.796875 1.16796875 C-6.78978047 -0.83912578 -2.75137605 0.00399394 0 0 Z " fill="#6BBBE6" transform="translate(237.796875,140.83203125)"/>
<path d="M0 0 C1.32 0.33 2.64 0.66 4 1 C4.33 2.98 4.66 4.96 5 7 C6.65 7 8.3 7 10 7 C10 7.99 10 8.98 10 10 C10.66 10.33 11.32 10.66 12 11 C12 10.34 12 9.68 12 9 C12.99 8.67 13.98 8.34 15 8 C15 10.31334444 14.9598604 12.62885377 14.8125 14.9375 C15.03063494 18.50037068 15.73720976 20.25232614 18 23 C19.32 23 20.64 23 22 23 C21.67 24.32 21.34 25.64 21 27 C21.99 27.33 22.98 27.66 24 28 C24 28.99 24 29.98 24 31 C26.27521866 28.83312509 28.15794162 26.54379491 30 24 C30.66 24.33 31.32 24.66 32 25 C32 24.34 32 23.68 32 23 C32.66 23 33.32 23 34 23 C34 21.02 34 19.04 34 17 C35.32 16.67 36.64 16.34 38 16 C38.33623796 14.7090864 38.66889249 13.41723903 39 12.125 C39.2784375 11.04605469 39.2784375 11.04605469 39.5625 9.9453125 C40.07313965 8.00710683 40.07313965 8.00710683 40 6 C41.98 6.66 43.96 7.32 46 8 C44.54679833 12.09329429 42.54218596 15.38263984 40.0859375 18.95703125 C39.71143463 19.50485764 39.33693176 20.05268402 38.95108032 20.61711121 C37.76354471 22.35203837 36.5694057 24.08229739 35.375 25.8125 C34.56466229 26.99383764 33.75476183 28.17547534 32.9453125 29.35742188 C30.96858818 32.24176986 28.9859185 35.12197215 27 38 C25.68 37.67 24.36 37.34 23 37 C23 36.34 23 35.68 23 35 C22.34 35 21.68 35 21 35 C19.81879442 33.30104814 18.73457934 31.53474337 17.6875 29.75 C13.41582568 22.56478765 8.84319864 15.59151201 4.2175293 8.62988281 C3.67136963 7.7994043 3.12520996 6.96892578 2.5625 6.11328125 C2.06878906 5.36860596 1.57507813 4.62393066 1.06640625 3.85668945 C0 2 0 2 0 0 Z " fill="#0E6CD8" transform="translate(255,185)"/>
<path d="M0 0 C1 2 1 2 0.0625 5.125 C-0.4634375 6.548125 -0.4634375 6.548125 -1 8 C-1.66 8 -2.32 8 -3 8 C-3 10.31 -3 12.62 -3 15 C-4.33333333 15.66666667 -5.66666667 16.33333333 -7 17 C-6.67 18.65 -6.34 20.3 -6 22 C-5.01 21.34 -4.02 20.68 -3 20 C-2.01 20.33 -1.02 20.66 0 21 C-0.6290625 21.556875 -1.258125 22.11375 -1.90625 22.6875 C-6.89707505 27.13715125 -11.69233535 31.63440008 -16.2109375 36.56640625 C-18 38 -18 38 -22 38 C-23.00189815 31.487662 -19.59286019 28.01296303 -16 23 C-14.75698214 21.14637687 -13.53024916 19.28253104 -12.30371094 17.41796875 C-8.38339461 11.46261181 -4.37166746 5.63715015 0 0 Z " fill="#8759DF" transform="translate(320,172)"/>
<path d="M0 0 C0.80897736 0.00328812 1.61795471 0.00657623 2.45144653 0.00996399 C4.1474014 0.02032505 5.84332256 0.04017245 7.5390625 0.0690918 C10.14602961 0.11350643 12.75207482 0.13058435 15.359375 0.14257812 C17.0104301 0.15598938 18.66147379 0.1709088 20.3125 0.1875 C21.09470917 0.19488693 21.87691833 0.20227386 22.68283081 0.20988464 C28.13944703 0.30741578 28.13944703 0.30741578 29.2578125 1.42578125 C29.29845082 3.0919524 29.3005335 4.7596622 29.2578125 6.42578125 C28.5978125 6.75578125 27.9378125 7.08578125 27.2578125 7.42578125 C27.5878125 5.77578125 27.9178125 4.12578125 28.2578125 2.42578125 C22.81226925 2.34604757 17.37083275 2.32543509 11.92480469 2.35864258 C10.0741755 2.36171725 8.22344664 2.34888135 6.37304688 2.31958008 C-3.99946048 1.69772437 -3.99946048 1.69772437 -13.21557617 5.35546875 C-14.75203631 7.67264374 -15.73281354 9.84471026 -16.7421875 12.42578125 C-17.72261466 13.82987821 -18.73934285 15.20997311 -19.8046875 16.55078125 C-21.71512477 19.04827997 -23.53523859 21.57690316 -25.3046875 24.17578125 C-27.40748843 27.15930076 -29.75677713 29.29334527 -32.7421875 31.42578125 C-31.0941038 26.26656271 -27.94976104 22.25633435 -24.8046875 17.92578125 C-23.73144032 16.43737378 -22.65978126 14.94781965 -21.58984375 13.45703125 C-21.08340332 12.75707031 -20.57696289 12.05710938 -20.05517578 11.3359375 C-18.62420031 9.33851723 -18.62420031 9.33851723 -17.30078125 6.64453125 C-12.99122526 0.50962448 -6.91056816 -0.15711793 0 0 Z " fill="#3B1D55" transform="translate(353.7421875,140.57421875)"/>
<path d="M0 0 C1.88051981 2.32826262 3.23701359 4.48350771 4.5625 7.1875 C5.69875811 10.09641953 5.69875811 10.09641953 8 11 C9 12.671875 9 12.671875 10 14.75 C10.34933594 15.46800781 10.69867188 16.18601563 11.05859375 16.92578125 C12 19 12 19 13.0625 21.9375 C13.371875 22.618125 13.68125 23.29875 14 24 C14.99 24.33 15.98 24.66 17 25 C17.73046875 26.84765625 17.73046875 26.84765625 18.1875 29.0625 C18.42533203 30.16271484 18.42533203 30.16271484 18.66796875 31.28515625 C18.77753906 31.85105469 18.88710938 32.41695312 19 33 C20.98 33 22.96 33 25 33 C24.67 33.99 24.34 34.98 24 36 C21.7109375 36.2734375 21.7109375 36.2734375 19 36 C17.2265625 34.1640625 17.2265625 34.1640625 15.625 31.625 C15.03074219 30.70847656 14.43648438 29.79195312 13.82421875 28.84765625 C13.22222656 27.90792969 12.62023437 26.96820313 12 26 C10.81842219 24.34990985 9.63104553 22.70395444 8.4375 21.0625 C-1.25842887 7.12322811 -1.25842887 7.12322811 -0.65625 2.17578125 C-0.4396875 1.45777344 -0.223125 0.73976562 0 0 Z " fill="#211D60" transform="translate(285,223)"/>
<path d="M0 0 C1.98 0.66 3.96 1.32 6 2 C4.54679833 6.09329429 2.54218596 9.38263984 0.0859375 12.95703125 C-0.28856537 13.50485764 -0.66306824 14.05268402 -1.04891968 14.61711121 C-2.23645529 16.35203837 -3.4305943 18.08229739 -4.625 19.8125 C-5.43533771 20.99383764 -6.24523817 22.17547534 -7.0546875 23.35742188 C-9.03141182 26.24176986 -11.0140815 29.12197215 -13 32 C-14.32 31.67 -15.64 31.34 -17 31 C-16.01 30.67 -15.02 30.34 -14 30 C-14 29.01 -14 28.02 -14 27 C-13.01 27 -12.02 27 -11 27 C-10.67 24.69 -10.34 22.38 -10 20 C-9.34 20 -8.68 20 -8 20 C-8 19.01 -8 18.02 -8 17 C-7.34 17 -6.68 17 -6 17 C-6 15.02 -6 13.04 -6 11 C-4.68 10.67 -3.36 10.34 -2 10 C-1.66376204 8.7090864 -1.33110751 7.41723903 -1 6.125 C-0.814375 5.40570313 -0.62875 4.68640625 -0.4375 3.9453125 C0.07313965 2.00710683 0.07313965 2.00710683 0 0 Z " fill="#0A54BA" transform="translate(295,191)"/>
<path d="M0 0 C0.33 0.99 0.66 1.98 1 3 C-0.2578125 4.9453125 -0.2578125 4.9453125 -2.125 7.125 C-5.23430368 10.91562521 -7.63894423 14.69201014 -9.859375 19.0546875 C-11 21 -11 21 -12.48828125 22.4765625 C-14.87050523 24.87725334 -16.10793519 27.84739641 -17.62109375 30.84375 C-19.13178189 33.20607252 -20.67789329 34.46178918 -23 36 C-17.83036406 19.83113865 -17.83036406 19.83113865 -14 17 C-13.34 17 -12.68 17 -12 17 C-12 16.01 -12 15.02 -12 14 C-11.34 14 -10.68 14 -10 14 C-9.9175 13.25105469 -9.835 12.50210938 -9.75 11.73046875 C-8.8369504 8.40639753 -7.66779933 7.43244768 -5 5.3125 C-2.03807329 3.03120707 -2.03807329 3.03120707 0 0 Z " fill="#1F1954" transform="translate(333,220)"/>
<path d="M0 0 C0.99 0 1.98 0 3 0 C3 0.66 3 1.32 3 2 C3.99 1.67 4.98 1.34 6 1 C6.33 2.65 6.66 4.3 7 6 C7.66 6 8.32 6 9 6 C9 4.02 9 2.04 9 0 C10.65 0.33 12.3 0.66 14 1 C14.70074844 4.153368 15 6.72724974 15 10 C15.99 10.33 16.98 10.66 18 11 C18 11.99 18 12.98 18 14 C17.34 14.66 16.68 15.32 16 16 C4.47835991 6.58997722 4.47835991 6.58997722 -1 2 C-0.67 1.34 -0.34 0.68 0 0 Z " fill="#5BBAFA" transform="translate(281,176)"/>
<path d="M0 0 C3.90678619 3.72343521 7.1988222 7.64090555 10.375 12 C10.83777344 12.60328125 11.30054688 13.2065625 11.77734375 13.828125 C13.80663264 16.61461123 15.01870282 18.34896377 14.91796875 21.85546875 C14 24 14 24 11.9375 25.3125 C11.298125 25.539375 10.65875 25.76625 10 26 C8.9375 23.625 8.9375 23.625 8 21 C8.33 20.34 8.66 19.68 9 19 C8.01 19 7.02 19 6 19 C5.67 17.35 5.34 15.7 5 14 C5.66 14 6.32 14 7 14 C6.81171228 11.55519921 6.81171228 11.55519921 6 9 C4.08333333 7.83333333 4.08333333 7.83333333 2 7 C0 4 0 4 0 0 Z " fill="#61B6F3" transform="translate(289,168)"/>
<path d="M0 0 C0.99 0 1.98 0 3 0 C2.57199249 3.70939843 0.65672139 5.75880975 -1.74609375 8.50390625 C-3.43391094 10.51771928 -4.65681266 12.74344527 -6 15 C-9.21921753 19.68335145 -12.30472422 23.68568769 -17 27 C-15.3519163 21.84078146 -12.20757354 17.8305531 -9.0625 13.5 C-7.98925282 12.01159253 -6.91759376 10.5220384 -5.84765625 9.03125 C-5.34637207 8.33644531 -4.84508789 7.64164063 -4.32861328 6.92578125 C-2.86146781 4.86431267 -2.86146781 4.86431267 -1.30859375 1.96875 C-0.66083984 0.99421875 -0.66083984 0.99421875 0 0 Z " fill="#6F439D" transform="translate(338,145)"/>
<path d="M0 0 C0.66 0 1.32 0 2 0 C4.29648649 2.5614657 5 3.47967572 5 7 C5.639375 7.2475 6.27875 7.495 6.9375 7.75 C9 9 9 9 9.75 11.125 C9.87375 12.053125 9.87375 12.053125 10 13 C9.34 13 8.68 13 8 13 C8 13.66 8 14.32 8 15 C6.1875 14.8125 6.1875 14.8125 4 14 C1.46629412 10.65188866 1 9.29875783 1 5 C0.34 5 -0.32 5 -1 5 C-0.67 3.35 -0.34 1.7 0 0 Z " fill="#3BA2F3" transform="translate(244,160)"/>
<path d="M0 0 C7.59 0 15.18 0 23 0 C22 5 22 5 19.4375 6.8125 C18.633125 7.204375 17.82875 7.59625 17 8 C17 5.69 17 3.38 17 1 C14.36 1.99 11.72 2.98 9 4 C8.67 3.34 8.34 2.68 8 2 C6.10466658 1.53476937 6.10466658 1.53476937 3.9375 1.375 C2.638125 1.25125 1.33875 1.1275 0 1 C0 0.67 0 0.34 0 0 Z " fill="#A858D6" transform="translate(359,143)"/>
<path d="M0 0 C0.99 0 1.98 0 3 0 C2.67 1.32 2.34 2.64 2 4 C2.99 4.33 3.98 4.66 5 5 C5 5.99 5 6.98 5 8 C7.27521866 5.83312509 9.15794162 3.54379491 11 1 C11.66 1.66 12.32 2.32 13 3 C12.34 3 11.68 3 11 3 C10.67 5.31 10.34 7.62 10 10 C9.01 10 8.02 10 7 10 C7 10.99 7 11.98 7 13 C6.01 13 5.02 13 4 13 C1.08966924 9.33513904 0.67863345 6.60625394 1 2 C0.34 1.67 -0.32 1.34 -1 1 C-0.67 0.67 -0.34 0.34 0 0 Z " fill="#0756C3" transform="translate(274,208)"/>
<path d="M0 0 C0.78375 0.639375 1.5675 1.27875 2.375 1.9375 C4.79539281 3.98142313 4.79539281 3.98142313 7 5 C7 5.66 7 6.32 7 7 C7.66 7 8.32 7 9 7 C9.33 9.31 9.66 11.62 10 14 C10.66 14 11.32 14 12 14 C12 14.99 12 15.98 12 17 C12.66 17 13.32 17 14 17 C14.33 18.98 14.66 20.96 15 23 C11.92961348 20.95307565 11.34436622 20.14382072 9.75 17 C7.31149556 12.39890753 4.4336862 8.26039549 1.35546875 4.06640625 C0 2 0 2 0 0 Z " fill="#265979" transform="translate(231,148)"/>
<path d="M0 0 C0.93423645 3.01031744 1.04449911 3.86650268 0 7 C0.99 7.33 1.98 7.66 3 8 C1.76284282 9.3452583 0.50975423 10.67587876 -0.75 12 C-1.79414063 13.11375 -1.79414063 13.11375 -2.859375 14.25 C-5 16 -5 16 -9 16 C-9 14.68 -9 13.36 -9 12 C-8.34 12 -7.68 12 -7 12 C-7 11.34 -7 10.68 -7 10 C-6.21625 9.608125 -5.4325 9.21625 -4.625 8.8125 C-1.09553263 6.37548682 -0.84964244 4.09373178 0 0 Z " fill="#8758DE" transform="translate(307,194)"/>
<path d="M0 0 C1.65 0 3.3 0 5 0 C5 1.32 5 2.64 5 4 C4.01 4 3.02 4 2 4 C2.12375 4.825 2.2475 5.65 2.375 6.5 C1.8523397 11.37816277 -0.59998804 14.52952147 -4 18 C-4.66 18 -5.32 18 -6 18 C-6 18.66 -6 19.32 -6 20 C-6.66 20 -7.32 20 -8 20 C-8.33 18.68 -8.66 17.36 -9 16 C-8.443125 15.79375 -7.88625 15.5875 -7.3125 15.375 C-4.12523052 13.4798668 -1.75995478 11.25132208 0 8 C0.40967711 5.18789538 0.2467224 2.86197983 0 0 Z " fill="#8347C0" transform="translate(370,152)"/>
<path d="M0 0 C5.12366423 6.14839707 9.43171062 15.15855311 11 23 C7.97329964 20.30642704 6.0129513 17.10743316 3.875 13.6875 C3.17117188 12.57761719 2.46734375 11.46773437 1.7421875 10.32421875 C0.03692487 7.0704553 -0.73081054 4.64482528 -1 1 C-0.67 0.67 -0.34 0.34 0 0 Z " fill="#1C1752" transform="translate(285,223)"/>
<path d="M0 0 C0 2.99850519 -0.48124803 5.13537781 -1.3125 8 C-1.55613281 8.86625 -1.79976563 9.7325 -2.05078125 10.625 C-3.04791103 13.11987617 -3.85948188 14.39329011 -6 16 C-6.99 16 -7.98 16 -9 16 C-9 16.66 -9 17.32 -9 18 C-9.66 18 -10.32 18 -11 18 C-8.61892097 11.25360942 -4.14238903 5.7533181 0 0 Z " fill="#57398A" transform="translate(309,188)"/>
<path d="M0 0 C-1.51308136 7.5654068 -5.25859688 13.09242653 -10 19 C-10 15.36348746 -8.98372089 12.89541047 -7.6875 9.5 C-7.25824219 8.3553125 -6.82898438 7.210625 -6.38671875 6.03125 C-3.62757732 0 -3.62757732 0 0 0 Z " fill="#221E64" transform="translate(321,237)"/>
<path d="M0 0 C1.8125 0.1875 1.8125 0.1875 4 1 C7 5.17857143 7 5.17857143 7 8 C7.66 8 8.32 8 9 8 C9.309375 9.093125 9.61875 10.18625 9.9375 11.3125 C10.58337897 13.55407994 11.2623117 15.7869351 12 18 C11.34 18 10.68 18 10 18 C8.56805405 15.96246024 7.27110673 13.94713033 6 11.8125 C5.46632813 10.9452832 5.46632813 10.9452832 4.921875 10.06054688 C2.94747932 6.80058386 1.29604594 3.58437704 0 0 Z " fill="#083778" transform="translate(266,202)"/>
<path d="M0 0 C3.88745859 1.29581953 4.77017605 3.06434346 7.125 6.375 C7.82882812 7.35210937 8.53265625 8.32921875 9.2578125 9.3359375 C11 12 11 12 12 15 C10.35 15 8.7 15 7 15 C5.66666667 11.66666667 4.33333333 8.33333333 3 5 C2.01 5 1.02 5 0 5 C0 3.33333333 0 1.66666667 0 0 Z " fill="#548CA8" transform="translate(271,145)"/>
<path d="M0 0 C0.33 0.66 0.66 1.32 1 2 C-0.14453125 4.3828125 -0.14453125 4.3828125 -1.8125 7.125 C-2.35519531 8.03507813 -2.89789063 8.94515625 -3.45703125 9.8828125 C-3.96621094 10.58148438 -4.47539062 11.28015625 -5 12 C-5.66 12 -6.32 12 -7 12 C-7.433125 13.4540625 -7.433125 13.4540625 -7.875 14.9375 C-9 18 -9 18 -11 19 C-10.67 16.36 -10.34 13.72 -10 11 C-9.34 11 -8.68 11 -8 11 C-8 9.68 -8 8.36 -8 7 C-7.01 7 -6.02 7 -5 7 C-5 6.34 -5 5.68 -5 5 C-3.37446717 3.29319053 -1.70884005 1.62339805 0 0 Z " fill="#442470" transform="translate(369,165)"/>
<path d="M0 0 C1.65 0.33 3.3 0.66 5 1 C5.95024979 4.69541586 5.95024979 7.30458414 5 11 C4.67 10.34 4.34 9.68 4 9 C1.47266765 8.34444881 1.47266765 8.34444881 -1 8 C-0.67 5.36 -0.34 2.72 0 0 Z " fill="#66BFF7" transform="translate(290,176)"/>
<path d="M0 0 C0.33 0.66 0.66 1.32 1 2 C-0.3649453 4.44268953 -1.77020178 6.73629683 -3.3125 9.0625 C-3.93801758 10.03799805 -3.93801758 10.03799805 -4.57617188 11.03320312 C-7.72800434 15.86400217 -7.72800434 15.86400217 -10 17 C-9.54177532 13.53058454 -9.10868317 10.32604951 -8 7 C-7.01 7.33 -6.02 7.66 -5 8 C-4.9175 7.236875 -4.835 6.47375 -4.75 5.6875 C-3.85384206 2.47626739 -2.78388975 1.70625501 0 0 Z " fill="#4C2574" transform="translate(380,148)"/>
<path d="M0 0 C1.32 0 2.64 0 4 0 C2.54301636 4.1281203 0.49073764 7.41040752 -2 11 C-2.75236055 12.12342272 -3.50244875 13.24837134 -4.25 14.375 C-4.8275 15.24125 -5.405 16.1075 -6 17 C-7 15 -7 15 -6.25 11.4375 C-5.8375 10.303125 -5.425 9.16875 -5 8 C-4.01 7.67 -3.02 7.34 -2 7 C-0.77030122 3.48809191 -0.77030122 3.48809191 0 0 Z " fill="#26185A" transform="translate(342,202)"/>
<path d="M0 0 C0 3.49336818 -0.69545146 4.39644434 -2.625 7.23046875 C-3.16640625 8.03291016 -3.7078125 8.83535156 -4.265625 9.66210938 C-5.12414062 10.91217773 -5.12414062 10.91217773 -6 12.1875 C-6.57234375 13.03248047 -7.1446875 13.87746094 -7.734375 14.74804688 C-9.15013971 16.83629982 -10.57218082 18.91997883 -12 21 C-13.32 20.67 -14.64 20.34 -16 20 C-15.01 19.67 -14.02 19.34 -13 19 C-13 18.01 -13 17.02 -13 16 C-12.01 16 -11.02 16 -10 16 C-9.75507813 15.29488281 -9.51015625 14.58976563 -9.2578125 13.86328125 C-7.82532472 10.60236963 -6.00478131 8.03865885 -3.875 5.1875 C-3.15054687 4.21167969 -2.42609375 3.23585937 -1.6796875 2.23046875 C-0.84824219 1.12638672 -0.84824219 1.12638672 0 0 Z " fill="#042254" transform="translate(294,202)"/>
<path d="M0 0 C1 2 1 2 0.0625 5.125 C-0.288125 6.07375 -0.63875 7.0225 -1 8 C-1.66 8 -2.32 8 -3 8 C-3.2475 8.5775 -3.495 9.155 -3.75 9.75 C-5.16683317 12.3002997 -6.87627537 14.01785701 -9 16 C-9.33 15.34 -9.66 14.68 -10 14 C-6.7 9.38 -3.4 4.76 0 0 Z " fill="#50337B" transform="translate(320,172)"/>
<path d="M0 0 C1.2077558 3.62326739 0.54311128 4.64146369 -1 8 C-1.66 8 -2.32 8 -3 8 C-3.28875 8.639375 -3.5775 9.27875 -3.875 9.9375 C-5 12 -5 12 -7 13 C-7.625 10.125 -7.625 10.125 -8 7 C-6.02805885 5.02805885 -4.49095467 4.167635 -2 3 C-1.34 2.67 -0.68 2.34 0 2 C0 1.34 0 0.68 0 0 Z " fill="#3E2B90" transform="translate(336,212)"/>
<path d="M0 0 C5.28 0 10.56 0 16 0 C15.67 0.99 15.34 1.98 15 3 C14.01 3 13.02 3 12 3 C12 2.34 12 1.68 12 1 C8.06924356 1.57452746 8.06924356 1.57452746 5 4 C2.375 3.625 2.375 3.625 0 3 C0 2.01 0 1.02 0 0 Z " fill="#7FCBF0" transform="translate(230,143)"/>
<path d="M0 0 C1.98 0.66 3.96 1.32 6 2 C4.68775452 5.93673644 3.08089673 8.22719294 0 11 C-0.84098656 6.98195309 -1.05404945 3.98196457 0 0 Z " fill="#0A4C9C" transform="translate(295,191)"/>
<path d="M0 0 C1.32 0.33 2.64 0.66 4 1 C4.33 2.98 4.66 4.96 5 7 C5.99 7.33 6.98 7.66 8 8 C8.94921875 10.06640625 8.94921875 10.06640625 9.6875 12.5625 C9.93886719 13.38878906 10.19023437 14.21507812 10.44921875 15.06640625 C10.63097656 15.70449219 10.81273437 16.34257812 11 17 C7.85177192 14.06072511 5.54542155 11.0143222 3.25 7.375 C2.63640625 6.41335937 2.0228125 5.45171875 1.390625 4.4609375 C0 2 0 2 0 0 Z " fill="#0E3A6F" transform="translate(255,185)"/>
<path d="M0 0 C1.32 0.33 2.64 0.66 4 1 C3.54300722 6.02692063 1.00758252 9.14896261 -2 13 C-2 12.01 -2 11.02 -2 10 C-2.04125 9.175 -2.0825 8.35 -2.125 7.5 C-2 5 -2 5 0 2 C0 1.34 0 0.68 0 0 Z " fill="#45267D" transform="translate(353,183)"/>
<path d="M0 0 C0.33 0.66 0.66 1.32 1 2 C0.67 2.99 0.34 3.98 0 5 C0.78375 4.649375 1.5675 4.29875 2.375 3.9375 C3.24125 3.628125 4.1075 3.31875 5 3 C5.66 3.33 6.32 3.66 7 4 C0.71428571 8.42857143 0.71428571 8.42857143 -3 9 C-3.26218749 5.85375007 -3.24754367 4.38162983 -1.5 1.6875 C-1.005 1.130625 -0.51 0.57375 0 0 Z " fill="#332683" transform="translate(289,217)"/>
<path d="M0 0 C1.32 1.65 2.64 3.3 4 5 C2.35 6.32 0.7 7.64 -1 9 C-1.66 8.67 -2.32 8.34 -3 8 C-3.36923077 3.44615385 -3.36923077 3.44615385 -1.5 1.1875 C-1.005 0.795625 -0.51 0.40375 0 0 Z " fill="#6D48B4" transform="translate(297,206)"/>
<path d="M0 0 C2.68276017 2.40760528 4.7038277 4.22254772 6 7.625 C6 10 6 10 4.5625 11.8125 C4.046875 12.204375 3.53125 12.59625 3 13 C2.71125 11.7625 2.4225 10.525 2.125 9.25 C1.38665206 6.27551258 0.55525067 3.666144 -1 1 C-0.67 0.67 -0.34 0.34 0 0 Z " fill="#3E7092" transform="translate(298,180)"/>
<path d="M0 0 C0.66 0 1.32 0 2 0 C4.29648649 2.5614657 5 3.47967572 5 7 C4.34 7.66 3.68 8.32 3 9 C2.34 8.67 1.68 8.34 1 8 C1 7.01 1 6.02 1 5 C0.34 5 -0.32 5 -1 5 C-0.67 3.35 -0.34 1.7 0 0 Z " fill="#4AAFF2" transform="translate(244,160)"/>
<path d="M0 0 C3.26008643 3.16952847 6.22237877 6.39937989 9 10 C8.67 10.66 8.34 11.32 8 12 C1.29540481 7.06345733 1.29540481 7.06345733 0.0625 2.625 C0.0315625 1.325625 0.0315625 1.325625 0 0 Z " fill="#3B6A87" transform="translate(289,168)"/>
<path d="M0 0 C3.23861303 1.44424635 5.61969163 3.25772247 8.25 5.625 C8.95640625 6.25664062 9.6628125 6.88828125 10.390625 7.5390625 C10.92171875 8.02117187 11.4528125 8.50328125 12 9 C10.02 9.99 10.02 9.99 8 11 C7.79375 10.443125 7.5875 9.88625 7.375 9.3125 C6.01718779 7.02890674 4.92057214 6.0008439 2.875 4.375 C1.92625 3.59125 0.9775 2.8075 0 2 C0 1.34 0 0.68 0 0 Z " fill="#3896E6" transform="translate(260,161)"/>
<path d="M0 0 C0.78375 0.639375 1.5675 1.27875 2.375 1.9375 C4.79539281 3.98142313 4.79539281 3.98142313 7 5 C7 5.66 7 6.32 7 7 C7.66 7 8.32 7 9 7 C8.67 8.32 8.34 9.64 8 11 C2.19794344 5.35475578 2.19794344 5.35475578 0 2 C0 1.34 0 0.68 0 0 Z " fill="#3C7194" transform="translate(231,148)"/>
<path d="M0 0 C0.99 0 1.98 0 3 0 C2.41196203 3.02419525 1.77321882 6.01758453 1 9 C0.01 9 -0.98 9 -2 9 C-1.34 6.03 -0.68 3.06 0 0 Z " fill="#8D57EB" transform="translate(309,192)"/>
<path d="M0 0 C0.33 1.32 0.66 2.64 1 4 C-0.43359375 6.140625 -0.43359375 6.140625 -2.4375 8.25 C-3.09621094 8.95640625 -3.75492187 9.6628125 -4.43359375 10.390625 C-4.95050781 10.92171875 -5.46742188 11.4528125 -6 12 C-6.33 11.34 -6.66 10.68 -7 10 C-3.535 5.05 -3.535 5.05 0 0 Z " fill="#472A6D" transform="translate(328,160)"/>
<path d="M0 0 C0.77772405 2.33317216 1.42415568 4.61435923 2 7 C0.68 7.33 -0.64 7.66 -2 8 C-2 7.34 -2 6.68 -2 6 C-2.66 6 -3.32 6 -4 6 C-2.84826645 3.53199953 -1.95216435 1.95216435 0 0 Z " fill="#34279C" transform="translate(302,209)"/>
<path d="M0 0 C0.99 0 1.98 0 3 0 C2.875 1.75 2.875 1.75 2 4 C-1.0625 6.25 -1.0625 6.25 -4 8 C-2.66666667 5.33333333 -1.33333333 2.66666667 0 0 Z " fill="#59347D" transform="translate(338,145)"/>
<path d="M0 0 C-1.47692308 4.67692308 -1.47692308 4.67692308 -4.125 6.3125 C-5.053125 6.6528125 -5.053125 6.6528125 -6 7 C-5.6875 4.625 -5.6875 4.625 -5 2 C-2 0 -2 0 0 0 Z " fill="#5E37A9" transform="translate(352,191)"/>
<path d="M0 0 C0.33 0 0.66 0 1 0 C1 1.98 1 3.96 1 6 C0.01 6.33 -0.98 6.66 -2 7 C-2.66 7.66 -3.32 8.32 -4 9 C-3.47181039 5.19703482 -2.56226812 2.88255163 0 0 Z " fill="#8C59D2" transform="translate(324,168)"/>
<path d="M0 0 C1.65 0 3.3 0 5 0 C5 1.32 5 2.64 5 4 C4.01 4 3.02 4 2 4 C1.67 5.32 1.34 6.64 1 8 C0 7 0 7 -0.0625 3.4375 C-0.041875 2.303125 -0.02125 1.16875 0 0 Z " fill="#9B4CD8" transform="translate(370,152)"/>
<path d="M0 0 C1.32 0.33 2.64 0.66 4 1 C3.67 2.65 3.34 4.3 3 6 C2.01 6.33 1.02 6.66 0 7 C0 4.69 0 2.38 0 0 Z " fill="#AB52DC" transform="translate(376,144)"/>
<path d="M0 0 C1.32 0 2.64 0 4 0 C3.1875 2.4375 3.1875 2.4375 2 5 C1.01 5.33 0.02 5.66 -1 6 C-1.042721 4.33388095 -1.04063832 2.66617115 -1 1 C-0.67 0.67 -0.34 0.34 0 0 Z " fill="#3A2173" transform="translate(342,202)"/>
<path d="M0 0 C0.66 0 1.32 0 2 0 C2 1.65 2 3.3 2 5 C0.68 5.33 -0.64 5.66 -2 6 C-2 4.68 -2 3.36 -2 2 C-1.34 2 -0.68 2 0 2 C0 1.34 0 0.68 0 0 Z " fill="#3798E7" transform="translate(254,173)"/>
<path d="M0 0 C0.75 1.75 0.75 1.75 1 4 C-0.9375 6.25 -0.9375 6.25 -3 8 C-3.66 6.68 -4.32 5.36 -5 4 C-4.0409375 3.8453125 -4.0409375 3.8453125 -3.0625 3.6875 C-2.381875 3.460625 -1.70125 3.23375 -1 3 C-0.67 2.01 -0.34 1.02 0 0 Z " fill="#0757C8" transform="translate(294,198)"/>
<path d="M0 0 C6.52307692 0.49230769 6.52307692 0.49230769 8.9375 3.0625 C9.288125 3.701875 9.63875 4.34125 10 5 C6.33118845 4.29445932 3.29549466 2.72264494 0 1 C0 0.67 0 0.34 0 0 Z " fill="#87C4E4" transform="translate(263,143)"/>
<path d="M0 0 C0 1.65 0 3.3 0 5 C0.99 4.67 1.98 4.34 3 4 C3 4.99 3 5.98 3 7 C1.1875 6.8125 1.1875 6.8125 -1 6 C-2.75 3.4375 -2.75 3.4375 -4 1 C-2 0 -2 0 0 0 Z " fill="#72BFEB" transform="translate(235,146)"/>
<path d="M0 0 C4.875 4.625 4.875 4.625 6 8 C4.68 8 3.36 8 2 8 C1.34 5.36 0.68 2.72 0 0 Z " fill="#305B7B" transform="translate(283,160)"/>
<path d="M0 0 C3.96 0 7.92 0 12 0 C11.67 1.65 11.34 3.3 11 5 C10.34 4.01 9.68 3.02 9 2 C6.80545319 1.42006301 6.80545319 1.42006301 4.375 1.3125 C3.55773437 1.24675781 2.74046875 1.18101562 1.8984375 1.11328125 C1.27195312 1.07589844 0.64546875 1.03851563 0 1 C0 0.67 0 0.34 0 0 Z " fill="#9F5BC8" transform="translate(370,143)"/>
<path d="M0 0 C1.875 0.3125 1.875 0.3125 4 1 C4.66 1.99 5.32 2.98 6 4 C3 5 3 5 0 4 C0 2.68 0 1.36 0 0 Z " fill="#0969DB" transform="translate(289,187)"/>
<path d="M0 0 C0 1.65 0 3.3 0 5 C-4.875 2.25 -4.875 2.25 -6 0 C-3 -1 -3 -1 0 0 Z " fill="#68C0F9" transform="translate(278,170)"/>
<path d="M0 0 C2.475 0.495 2.475 0.495 5 1 C4.67 2.32 4.34 3.64 4 5 C4.66 5 5.32 5 6 5 C6 5.66 6 6.32 6 7 C3 6 3 6 1.3125 2.9375 C0.879375 1.968125 0.44625 0.99875 0 0 Z " fill="#459DDE" transform="translate(245,168)"/>
<path d="M0 0 C0.33 0.66 0.66 1.32 1 2 C-0.65 3.65 -2.3 5.3 -4 7 C-4.33 6.01 -4.66 5.02 -5 4 C-3.35 2.68 -1.7 1.36 0 0 Z " fill="#5F3384" transform="translate(380,148)"/>
<path d="M0 0 C0.99 0 1.98 0 3 0 C2.67 1.32 2.34 2.64 2 4 C2.99 4.33 3.98 4.66 5 5 C4.34 5.66 3.68 6.32 3 7 C2.34 6.67 1.68 6.34 1 6 C1 4.68 1 3.36 1 2 C0.34 1.67 -0.32 1.34 -1 1 C-0.67 0.67 -0.34 0.34 0 0 Z " fill="#0559D7" transform="translate(274,208)"/>
<path d="M0 0 C3.39914975 1.13304992 4.05254451 2.12518475 6 5 C5.67 5.66 5.34 6.32 5 7 C2.525 6.01 2.525 6.01 0 5 C0 3.33333333 0 1.66666667 0 0 Z " fill="#30586D" transform="translate(271,145)"/>
<path d="" fill="#000000" transform="translate(0,0)"/>
<path d="" fill="#000000" transform="translate(0,0)"/>
<path d="" fill="#000000" transform="translate(0,0)"/>
<path d="" fill="#000000" transform="translate(0,0)"/>
<path d="" fill="#000000" transform="translate(0,0)"/>
<path d="" fill="#000000" transform="translate(0,0)"/>
<path d="" fill="#000000" transform="translate(0,0)"/>
<path d="" fill="#000000" transform="translate(0,0)"/>
<path d="" fill="#000000" transform="translate(0,0)"/>
<path d="" fill="#000000" transform="translate(0,0)"/>
<path d="" fill="#000000" transform="translate(0,0)"/>
<path d="" fill="#000000" transform="translate(0,0)"/>
<path d="" fill="#000000" transform="translate(0,0)"/>
<path d="" fill="#000000" transform="translate(0,0)"/>
<path d="" fill="#000000" transform="translate(0,0)"/>
<path d="" fill="#000000" transform="translate(0,0)"/>
<path d="" fill="#000000" transform="translate(0,0)"/>
<path d="" fill="#000000" transform="translate(0,0)"/>
<path d="" fill="#000000" transform="translate(0,0)"/>
<path d="" fill="#000000" transform="translate(0,0)"/>
<path d="" fill="#000000" transform="translate(0,0)"/>
<path d="" fill="#000000" transform="translate(0,0)"/>
<path d="" fill="#000000" transform="translate(0,0)"/>
<path d="" fill="#000000" transform="translate(0,0)"/>
<path d="" fill="#000000" transform="translate(0,0)"/>
<path d="" fill="#000000" transform="translate(0,0)"/>
<path d="" fill="#000000" transform="translate(0,0)"/>
<path d="" fill="#000000" transform="translate(0,0)"/>
<path d="" fill="#000000" transform="translate(0,0)"/>
<path d="" fill="#000000" transform="translate(0,0)"/>
<path d="" fill="#000000" transform="translate(0,0)"/>
<path d="" fill="#000000" transform="translate(0,0)"/>
<path d="" fill="#000000" transform="translate(0,0)"/>
<path d="" fill="#000000" transform="translate(0,0)"/>
<path d="" fill="#000000" transform="translate(0,0)"/>
<path d="" fill="#000000" transform="translate(0,0)"/>
<path d="" fill="#000000" transform="translate(0,0)"/>
<path d="" fill="#000000" transform="translate(0,0)"/>
<path d="" fill="#000000" transform="translate(0,0)"/>
<path d="" fill="#000000" transform="translate(0,0)"/>
<path d="" fill="#000000" transform="translate(0,0)"/>
<path d="" fill="#000000" transform="translate(0,0)"/>
<path d="" fill="#000000" transform="translate(0,0)"/>
<path d="" fill="#000000" transform="translate(0,0)"/>
<path d="" fill="#000000" transform="translate(0,0)"/>
<path d="" fill="#000000" transform="translate(0,0)"/>
<path d="" fill="#000000" transform="translate(0,0)"/>
<path d="" fill="#000000" transform="translate(0,0)"/>
<path d="" fill="#000000" transform="translate(0,0)"/>
<path d="" fill="#000000" transform="translate(0,0)"/>
<path d="" fill="#000000" transform="translate(0,0)"/>
<path d="" fill="#000000" transform="translate(0,0)"/>
<path d="" fill="#000000" transform="translate(0,0)"/>
<path d="" fill="#000000" transform="translate(0,0)"/>
<path d="" fill="#000000" transform="translate(0,0)"/>
<path d="" fill="#000000" transform="translate(0,0)"/>
<path d="" fill="#000000" transform="translate(0,0)"/>
<path d="" fill="#000000" transform="translate(0,0)"/>
<path d="" fill="#000000" transform="translate(0,0)"/>
<path d="" fill="#000000" transform="translate(0,0)"/>
<path d="" fill="#000000" transform="translate(0,0)"/>
<path d="" fill="#000000" transform="translate(0,0)"/>
<path d="" fill="#000000" transform="translate(0,0)"/>
<path d="" fill="#000000" transform="translate(0,0)"/>
<path d="" fill="#000000" transform="translate(0,0)"/>
<path d="" fill="#000000" transform="translate(0,0)"/>
<path d="" fill="#000000" transform="translate(0,0)"/>
<path d="" fill="#000000" transform="translate(0,0)"/>
<path d="" fill="#000000" transform="translate(0,0)"/>
<path d="" fill="#000000" transform="translate(0,0)"/>
<path d="" fill="#000000" transform="translate(0,0)"/>
</svg>
